<?xml version="1.0" standalone="no"?>
<!DOCTYPE svg PUBLIC "-//W3C//DTD SVG 20010904//EN"
 "http://www.w3.org/TR/2001/REC-SVG-20010904/DTD/svg10.dtd">
<svg version="1.0" xmlns="http://www.w3.org/2000/svg"
 width="1024.000000pt" height="1024.000000pt" viewBox="0 0 1024.000000 1024.000000"
 preserveAspectRatio="xMidYMid meet">

<g transform="translate(0.000000,1024.000000) scale(0.100000,-0.100000)"
fill="#000000" stroke="none">
<path d="M4155 9601 c-137 -25 -226 -53 -364 -115 -239 -106 -458 -257 -662
-454 -251 -242 -417 -462 -610 -812 -41 -74 -133 -217 -204 -318 -72 -100
-166 -241 -209 -313 -80 -133 -196 -367 -236 -474 -85 -231 -91 -554 -15 -782
16 -46 25 -97 25 -136 1 -37 9 -84 21 -117 32 -87 32 -88 -6 -220 -80 -272
-141 -388 -279 -525 -98 -98 -172 -142 -281 -170 -84 -21 -226 -19 -295 5 -30
10 -56 17 -58 15 -3 -2 19 -28 47 -58 91 -96 243 -157 389 -157 152 0 387 64
537 145 45 25 84 45 87 45 2 0 1 -30 -4 -67 -23 -177 -85 -337 -175 -448 -62
-76 -169 -157 -253 -191 -110 -44 -110 -45 -24 -39 141 9 282 66 404 164 41
33 76 58 78 57 7 -7 -32 -166 -54 -220 -39 -95 -78 -147 -191 -252 -191 -177
-245 -242 -299 -364 -45 -98 -65 -189 -71 -315 -7 -145 7 -229 72 -430 49
-150 80 -302 71 -346 -3 -15 -8 -40 -12 -55 l-7 -29 23 20 c73 65 122 254 135
525 7 140 21 265 31 282 4 6 28 -23 54 -63 135 -210 190 -358 190 -508 0 -119
-18 -182 -105 -356 -92 -185 -110 -248 -102 -370 6 -93 39 -214 45 -165 27
223 83 317 269 445 51 36 95 65 97 65 2 0 6 -35 8 -78 11 -169 163 -404 336
-519 99 -66 275 -118 375 -111 l47 3 -141 80 c-157 89 -224 150 -255 232 -10
27 -33 69 -50 96 -42 61 -58 137 -44 201 25 112 128 253 225 311 154 89 389
63 505 -57 21 -21 44 -38 52 -38 27 0 98 -60 128 -106 15 -25 34 -68 40 -95
l12 -50 77 4 c42 3 303 10 581 17 522 12 986 8 1020 -10 10 -5 21 -6 24 -2 3
5 58 9 122 11 65 1 121 4 125 6 10 7 1331 -14 1356 -21 18 -5 23 -1 28 22 23
105 81 186 157 219 24 11 62 36 86 57 115 104 311 125 470 51 76 -36 171 -134
214 -221 27 -54 34 -81 36 -143 4 -82 -10 -124 -63 -187 -14 -16 -25 -35 -25
-41 0 -27 -52 -110 -92 -147 -41 -38 -191 -132 -272 -170 -20 -10 -36 -21 -36
-24 0 -12 101 1 200 26 150 37 229 82 340 194 144 145 208 269 218 418 l5 83
26 -24 c14 -13 61 -48 104 -77 143 -97 204 -195 230 -365 7 -44 15 -75 19 -70
16 28 31 130 32 210 0 111 -11 148 -102 335 -39 80 -78 173 -87 206 -33 132
-13 308 53 475 34 83 161 360 172 372 10 11 86 -86 120 -153 45 -90 62 -149
69 -250 l7 -95 13 60 c10 42 12 102 8 200 -8 210 -38 291 -230 624 -82 140
-125 242 -148 346 -10 44 -17 81 -15 82 2 2 37 -10 77 -26 92 -37 176 -51 299
-50 95 0 265 25 190 28 -153 5 -324 104 -424 244 -101 143 -150 283 -150 427
0 107 6 127 92 356 66 175 87 249 97 339 3 33 8 72 11 86 l5 26 67 -24 c69
-25 202 -43 202 -27 0 5 -25 22 -56 38 -154 81 -280 262 -378 545 -52 148 -82
311 -106 571 -24 264 -49 410 -96 572 -63 220 -159 425 -302 648 -30 47 -77
126 -105 175 -302 544 -748 958 -1198 1111 -174 59 -247 69 -504 69 -199 -1
-243 -4 -328 -23 -142 -31 -298 -86 -398 -139 l-88 -46 -70 64 c-121 111 -308
209 -468 246 -108 24 -385 27 -508 4z m1441 -1212 c55 -10 94 -20 263 -69 l69
-20 6 -88 c27 -398 91 -548 323 -759 279 -253 378 -392 433 -609 30 -116 25
-286 -11 -402 l-11 -32 -18 22 c-24 29 -25 16 -3 -45 16 -45 16 -52 1 -112
-10 -35 -32 -104 -51 -154 -19 -50 -30 -91 -25 -91 5 0 50 42 101 93 97 97
165 190 233 321 l42 79 18 -79 c27 -117 25 -408 -5 -564 -68 -368 -73 -402
-74 -570 0 -171 11 -273 42 -375 l18 -60 7 65 c19 159 76 340 160 507 l51 103
-4 -154 c-3 -148 -2 -156 26 -238 27 -78 80 -184 88 -176 2 2 -1 28 -7 58 -5
30 -8 109 -5 175 3 101 9 136 37 220 l32 99 23 -79 c24 -82 93 -238 139 -311
l25 -40 -64 -108 c-74 -124 -159 -228 -340 -415 -310 -320 -686 -555 -1125
-701 -280 -94 -467 -128 -746 -137 -523 -17 -1043 115 -1499 380 -313 182
-649 463 -839 702 -63 78 -192 269 -199 294 -1 4 30 48 69 97 173 215 299 450
352 654 l18 71 29 -83 c16 -46 84 -221 151 -390 142 -353 176 -461 205 -648
36 -236 33 -230 50 -110 18 131 18 513 1 625 -7 44 -20 125 -28 180 -9 55 -36
210 -61 345 -63 343 -73 419 -80 641 -5 158 -3 220 12 320 19 137 64 328 90
382 43 92 294 300 580 481 326 207 502 369 682 629 l33 47 65 0 c64 0 66 -1
59 -22 -43 -142 -260 -388 -569 -647 -162 -136 -199 -172 -161 -158 31 12 364
227 453 292 175 130 358 336 446 503 l38 72 198 0 c108 0 224 -5 257 -11z
m-2811 -3591 c0 -182 0 -183 23 -186 13 -2 25 3 28 12 13 33 21 14 12 -24 -6
-23 -8 -43 -5 -46 3 -4 20 4 36 16 17 12 31 17 31 11 0 -24 -44 -125 -75 -171
-19 -28 -28 -47 -21 -43 29 17 115 96 111 102 -2 4 4 7 13 8 9 0 41 4 70 8
l52 8 -45 -49 c-24 -27 -45 -52 -45 -56 0 -9 87 -48 107 -48 30 0 1 -17 -50
-30 -49 -11 -61 -11 -128 10 -41 12 -78 25 -83 28 -14 8 29 -50 65 -89 30 -32
48 -81 49 -137 0 -23 -1 -23 -45 9 -25 18 -45 40 -45 50 0 34 -43 151 -50 137
-4 -7 -15 -44 -25 -81 -14 -56 -24 -72 -54 -95 -20 -15 -39 -31 -43 -37 -10
-13 -9 29 1 81 5 25 26 65 55 103 39 50 43 59 24 52 -106 -39 -132 -42 -193
-28 l-60 14 60 27 c33 16 62 30 64 32 2 2 -15 28 -38 58 -22 30 -41 58 -41 62
0 4 27 4 60 0 l60 -7 1 63 c0 35 3 57 6 50 6 -15 77 -62 93 -62 6 0 10 76 10
215 0 118 3 215 8 215 4 0 7 -82 7 -182z m4685 -38 c2 -91 5 -177 9 -192 l6
-28 49 42 49 42 -6 -63 -5 -63 71 7 c79 7 78 12 16 -62 -15 -17 -31 -39 -36
-47 -6 -11 -36 -20 -95 -27 -73 -10 -85 -14 -81 -28 2 -10 -9 -48 -26 -84 -17
-37 -31 -72 -31 -76 0 -9 -81 -83 -86 -78 -1 1 3 30 11 65 10 52 22 73 65 122
28 33 50 60 48 60 -2 0 -31 -10 -63 -21 -65 -23 -117 -27 -180 -13 l-40 9 63
27 c63 28 143 38 192 24 20 -6 16 2 -25 41 -27 26 -59 59 -70 73 l-20 25 21
-17 c11 -10 25 -18 30 -18 5 0 33 -25 61 -57 l53 -58 0 43 c0 24 -4 41 -9 38
-5 -3 -11 31 -13 77 -4 63 -2 84 8 90 11 6 14 46 15 180 0 105 4 164 9 152 5
-11 9 -94 10 -185z m-66 -219 c6 -65 3 -70 -19 -29 -7 14 -18 22 -31 20 -15
-2 -16 -1 -4 7 11 8 9 12 -15 21 -17 6 -40 9 -52 7 -15 -3 -23 1 -23 9 0 18
15 18 76 -1 27 -8 51 -15 53 -15 2 0 0 17 -3 38 -4 23 -3 31 2 22 5 -8 12 -44
16 -79z m-171 -58 c-7 -2 -19 -2 -25 0 -7 3 -2 5 12 5 14 0 19 -2 13 -5z m467
-130 l53 -27 -49 -13 c-63 -16 -71 -16 -71 2 0 8 10 15 21 16 21 1 21 1 1 9
-11 4 -31 11 -44 15 -23 8 -24 9 -5 16 31 12 39 11 94 -18z m-4687 -117 l24
-44 -46 15 c-61 21 -66 27 -36 43 14 7 25 17 25 22 0 17 9 7 33 -36z m4651 -6
c14 -22 24 -40 22 -40 -12 0 -56 52 -56 65 0 22 5 19 34 -25z m-4169 -61 c50
-39 140 -102 200 -142 78 -50 119 -83 138 -113 15 -23 27 -47 27 -53 0 -6 11
-13 25 -17 14 -3 25 -11 25 -16 0 -6 -7 -8 -15 -4 -25 9 -17 -9 19 -45 25 -23
32 -38 26 -49 -9 -17 6 -35 30 -35 9 0 15 -9 14 -22 0 -13 3 -23 8 -23 4 0 8
11 8 25 0 15 6 25 15 25 9 0 12 6 9 15 -10 24 9 17 30 -12 18 -24 18 -27 3
-38 -10 -7 -17 -18 -18 -26 0 -10 -2 -11 -6 -1 -2 6 -9 12 -14 12 -12 0 -12
-37 1 -45 6 -3 10 -15 10 -26 0 -10 5 -19 10 -19 6 0 10 -8 10 -17 0 -15 2
-16 10 -3 8 12 10 11 10 -7 0 -13 2 -23 4 -23 2 0 12 -3 21 -6 13 -5 12 0 -5
32 -12 22 -32 49 -43 62 -15 16 -17 23 -7 20 9 -2 16 6 18 20 2 12 7 22 11 22
16 0 31 -28 24 -45 -4 -13 -3 -16 5 -11 15 9 42 -16 42 -38 0 -9 5 -16 10 -16
14 0 12 16 -5 51 -9 16 -13 34 -10 39 3 6 1 10 -4 10 -6 0 -11 7 -11 15 0 9
-9 19 -21 23 -19 7 -19 9 -5 21 17 14 31 8 31 -12 0 -7 11 -11 23 -10 15 2 22
-3 22 -14 0 -9 6 -24 14 -32 20 -23 32 -66 16 -56 -9 5 -11 4 -6 -4 4 -6 16
-9 27 -6 10 4 29 -1 41 -9 19 -14 23 -14 35 2 11 12 16 14 19 5 3 -7 13 -13
21 -13 13 0 13 3 2 16 -7 9 -24 20 -37 25 -15 6 -22 15 -18 24 3 8 1 15 -4 15
-6 0 -10 10 -10 23 0 14 -11 32 -28 44 -25 18 -40 54 -23 52 19 -2 103 -47 89
-48 -20 -1 -21 -3 -12 -25 3 -9 16 -16 29 -16 25 0 50 -24 40 -39 -6 -10 45
-46 95 -67 23 -10 25 -9 26 12 1 13 -2 24 -7 24 -5 0 -9 -4 -9 -10 0 -22 -25
-8 -26 15 -2 19 3 25 20 26 20 0 20 1 1 8 -11 4 -35 7 -54 5 -22 -2 -30 0 -22
6 10 6 6 12 -18 24 -31 16 -42 36 -19 36 6 0 61 -13 122 -29 410 -109 869
-116 1270 -21 44 11 82 17 85 13 3 -3 1 -8 -6 -10 -7 -2 -9 -11 -6 -20 4 -10
2 -14 -5 -9 -16 10 -27 -15 -11 -25 12 -8 12 -11 -1 -19 -21 -14 -30 -12 -30
5 0 12 -5 11 -30 -3 -35 -20 -40 -36 -8 -26 20 6 21 5 9 -10 -12 -14 -11 -16
3 -16 9 0 16 7 16 15 0 9 6 15 13 13 22 -5 76 24 82 43 4 12 16 19 33 19 20 0
23 3 13 9 -9 6 -22 6 -33 0 -10 -5 -18 -7 -18 -3 0 13 35 33 57 34 12 0 23 4
25 8 6 16 100 72 119 72 11 0 17 -5 14 -10 -4 -6 -11 -8 -16 -4 -14 8 -49 -31
-49 -55 0 -11 -9 -22 -20 -26 -11 -3 -23 -18 -26 -31 -4 -16 -12 -23 -20 -20
-8 3 -13 2 -12 -2 4 -14 -23 -52 -33 -47 -5 4 -12 -2 -16 -12 -9 -25 -26 -34
-35 -20 -5 8 -8 6 -8 -6 0 -11 -10 -20 -30 -23 -16 -4 -30 -12 -30 -20 0 -7
-9 -16 -21 -19 -12 -4 -30 -16 -41 -27 -11 -11 -26 -17 -33 -14 -14 5 -42 -20
-33 -30 8 -8 111 41 127 59 7 10 20 17 27 17 8 0 14 5 14 11 0 6 6 9 14 6 8
-3 16 2 19 14 3 11 14 19 25 19 11 0 22 7 26 15 3 8 12 15 21 15 8 0 15 5 15
10 0 19 40 50 65 50 16 0 25 6 25 15 0 18 -16 20 -24 3 -3 -7 -5 -4 -3 7 1 12
10 20 21 20 10 0 22 10 27 22 10 28 28 38 42 24 17 -17 21 -14 41 24 22 40 41
48 24 9 -9 -20 -9 -27 1 -34 8 -4 10 -13 6 -19 -5 -9 -11 -9 -22 1 -14 11 -15
9 -8 -21 6 -28 5 -33 -8 -28 -11 4 -17 -2 -22 -22 -3 -16 -16 -33 -30 -39 -14
-7 -25 -17 -25 -23 0 -8 4 -8 15 1 11 9 15 10 15 1 0 -19 -23 -38 -39 -33 -8
3 -11 0 -7 -6 3 -6 -1 -15 -10 -20 -16 -9 -15 -12 4 -33 22 -23 22 -23 22 -2
0 13 8 24 21 28 13 4 18 12 15 22 -8 19 12 45 27 36 6 -3 7 -1 3 5 -9 15 22
62 40 62 17 0 19 17 3 22 -8 3 -6 9 4 20 9 8 19 27 22 41 4 14 17 33 30 41 12
8 30 22 39 32 26 25 32 7 12 -31 -16 -28 -22 -33 -33 -23 -12 10 -13 7 -8 -15
6 -21 4 -27 -9 -27 -9 0 -16 -4 -16 -8 0 -20 45 -5 59 20 10 18 22 26 32 23
21 -7 34 24 14 31 -8 4 -13 10 -10 15 3 4 12 6 20 2 17 -6 21 12 5 22 -16 10
0 26 20 20 14 -4 24 9 51 69 30 66 40 79 87 108 94 58 229 151 308 212 l76 60
36 -20 c71 -37 195 -173 284 -309 274 -423 409 -760 432 -1082 l4 -63 -46 32
c-83 57 -135 72 -258 72 -111 1 -112 1 -190 -39 -50 -26 -86 -52 -100 -72
l-21 -32 -63 250 c-65 263 -168 617 -195 668 -29 56 -89 68 -132 25 -31 -31
-30 -36 32 -309 88 -386 138 -670 146 -824 l3 -53 -724 1 c-549 2 -727 5 -733
14 -5 7 -6 3 -2 -10 9 -31 -4 -29 -65 12 -29 20 -54 34 -55 33 -1 -2 -10 -28
-20 -58 -18 -54 -19 -55 -27 -25 -4 17 -11 68 -14 115 -4 47 -12 88 -18 92 -8
6 -8 8 0 8 10 0 64 83 104 159 l13 24 -29 -22 c-35 -28 -44 -18 -64 64 -7 30
-18 54 -23 52 -6 -2 -16 -24 -24 -49 -7 -25 -20 -48 -28 -52 -8 -3 -14 0 -12
6 1 6 -17 21 -40 33 -24 13 -43 19 -43 14 0 -5 -4 -9 -10 -9 -5 0 -10 9 -10
19 0 10 -7 22 -16 25 -20 8 -39 8 -31 0 3 -3 2 -17 -3 -30 -9 -22 -7 -24 23
-24 37 0 49 -7 66 -35 11 -19 12 -19 5 4 -4 16 -3 21 6 16 6 -4 9 -18 5 -34
-5 -22 3 -35 50 -81 30 -30 55 -58 55 -62 0 -5 -34 -25 -75 -45 -59 -30 -75
-42 -75 -59 0 -12 -3 -31 -6 -41 -5 -15 -4 -15 5 -3 5 8 13 11 17 8 3 -4 -6
-18 -21 -32 l-28 -26 -571 0 c-314 0 -649 -3 -744 -7 -146 -5 -172 -4 -167 8
2 8 11 70 20 139 24 206 77 482 169 883 26 115 24 146 -12 173 -48 37 -110 1
-140 -79 -39 -104 -122 -406 -172 -622 -27 -121 -52 -231 -55 -244 l-6 -24
-19 30 c-10 17 -32 40 -49 52 -141 100 -349 107 -489 15 -30 -20 -57 -33 -60
-30 -3 4 0 62 6 131 22 237 130 506 355 889 76 128 194 292 248 343 32 30 138
103 149 103 3 0 46 -32 95 -71z m-900 33 c-3 -3 -11 0 -18 7 -9 10 -8 11 6 5
10 -3 15 -9 12 -12z m213 -147 c-3 -3 -9 2 -12 12 -6 14 -5 15 5 6 7 -7 10
-15 7 -18z m4630 0 c-3 -3 -9 2 -12 12 -6 14 -5 15 5 6 7 -7 10 -15 7 -18z
m-3521 -171 c2 -10 0 -13 -3 -6 -3 6 -12 12 -20 12 -9 0 -12 5 -9 11 10 15 30
5 32 -17z m2443 -13 c0 -13 -12 -20 -25 -14 -8 2 -11 11 -9 18 6 14 34 10 34
-4z m-2377 -52 c4 -13 10 -19 19 -14 7 3 4 -1 -6 -9 -28 -23 -49 -20 -63 9
-13 29 -7 32 18 9 16 -15 17 -14 12 5 -3 12 -1 21 5 21 5 0 12 -9 15 -21z
m2272 1 c0 -23 23 -22 27 1 3 20 4 21 16 6 11 -13 10 -18 -13 -33 -24 -16 -26
-16 -40 2 -18 24 -19 47 -2 42 6 -3 12 -11 12 -18z m-2211 -5 c3 -8 1 -15 -4
-15 -6 0 -10 7 -10 15 0 8 2 15 4 15 2 0 6 -7 10 -15z m2127 -48 c-16 -16 -25
-1 -10 16 8 8 16 11 18 5 2 -5 -2 -15 -8 -21z m54 15 c-3 -3 -11 0 -18 7 -9
10 -8 11 6 5 10 -3 15 -9 12 -12z m-2131 -44 c-3 -5 -7 -8 -8 -6 -1 2 -10 17
-20 33 l-19 30 26 -24 c15 -13 24 -28 21 -33z m91 32 c13 -6 15 -9 5 -9 -8 0
-22 4 -30 9 -18 12 -2 12 25 0z m-199 -20 c9 0 12 4 9 10 -3 6 1 7 9 4 22 -9
20 -31 -4 -44 -17 -9 -22 -7 -30 15 -10 26 -13 51 -3 28 2 -7 11 -13 19 -13z
m69 10 c3 -5 1 -10 -4 -10 -6 0 -11 5 -11 10 0 6 2 10 4 10 3 0 8 -4 11 -10z
m2160 0 c3 -5 1 -10 -4 -10 -6 0 -11 5 -11 10 0 6 2 10 4 10 3 0 8 -4 11 -10z
m-103 -22 c-7 -7 -12 -8 -12 -2 0 14 12 26 19 19 2 -3 -1 -11 -7 -17z m-1895
-68 c3 -11 10 -20 15 -20 5 0 6 -4 3 -10 -3 -5 1 -10 9 -10 18 0 20 -8 8 -27
-6 -9 -12 -7 -25 8 -10 11 -15 24 -12 29 4 6 1 10 -5 10 -7 0 -10 6 -7 14 3 8
1 17 -6 20 -8 3 -8 5 1 5 8 1 16 -8 19 -19z m188 -50 c3 -5 2 -10 -4 -10 -5 0
-13 5 -16 10 -3 6 -2 10 4 10 5 0 13 -4 16 -10z m1440 0 c3 -5 -1 -10 -10 -10
-9 0 -13 5 -10 10 3 6 8 10 10 10 2 0 7 -4 10 -10z m-665 -844 c0 -10 -40 -96
-45 -96 -3 0 -5 18 -5 40 0 29 4 40 15 40 8 0 15 5 15 10 0 6 5 10 10 10 6 0
10 -2 10 -4z"/>
<path d="M3935 7242 c-19 -37 -34 -73 -33 -80 3 -11 125 -68 343 -159 33 -14
85 -38 115 -53 30 -16 107 -51 170 -78 261 -112 423 -188 455 -215 38 -31 88
-125 111 -207 8 -32 17 -123 21 -212 3 -87 9 -158 13 -158 4 0 10 60 14 133
16 291 68 409 214 485 139 73 453 202 491 203 28 0 32 2 16 8 -23 9 12 27 274
138 85 35 161 69 170 74 9 5 28 13 43 18 l26 10 -40 76 c-33 62 -43 75 -59 70
-15 -5 -109 -49 -314 -145 -11 -5 -182 -85 -380 -178 -198 -92 -368 -172 -378
-178 -16 -9 -14 -15 17 -74 34 -63 34 -64 17 -90 -37 -52 -75 -137 -91 -205
l-17 -70 -13 60 c-16 78 -36 128 -75 190 l-32 51 34 63 c18 35 32 65 31 66
-16 14 -1015 489 -1085 516 -20 7 -26 1 -58 -59z"/>
<path d="M4699 6201 c-31 -32 -38 -79 -18 -124 13 -30 59 -57 94 -57 32 0 81
46 91 84 25 100 -94 169 -167 97z"/>
<path d="M5419 6201 c-43 -43 -41 -101 5 -147 44 -44 86 -46 127 -5 23 24 29
38 29 74 0 98 -95 144 -161 78z"/>
<path d="M5023 4669 c-81 -14 -162 -48 -180 -76 -16 -24 -16 -26 2 -39 11 -8
26 -12 35 -8 45 18 169 44 209 44 67 0 202 -35 271 -70 70 -35 86 -37 100 -10
16 30 -1 53 -67 87 -114 61 -264 90 -370 72z"/>
<path d="M2660 4456 c0 -2 8 -10 18 -17 15 -13 16 -12 3 4 -13 16 -21 21 -21
13z"/>
<path d="M2771 4426 c-1 -26 -3 -27 -18 -15 -13 10 -13 8 2 -10 20 -23 20 -23
23 -2 2 12 1 29 -1 39 -3 10 -5 5 -6 -12z"/>
<path d="M2629 4423 c-13 -16 -12 -17 4 -4 16 13 21 21 13 21 -2 0 -10 -8 -17
-17z"/>
<path d="M2723 4373 c9 -2 23 -2 30 0 6 3 -1 5 -18 5 -16 0 -22 -2 -12 -5z"/>
<path d="M2892 4370 c-43 -10 -50 -17 -15 -18 15 0 37 7 48 14 21 15 17 16
-33 4z"/>
<path d="M6070 3656 c0 -8 -9 -18 -20 -21 -19 -6 -29 -35 -12 -35 26 0 60 54
42 65 -6 4 -10 -1 -10 -9z"/>
<path d="M4315 3640 c3 -5 8 -10 11 -10 2 0 4 5 4 10 0 6 -5 10 -11 10 -5 0
-7 -4 -4 -10z"/>
<path d="M6195 3609 c-4 -13 -2 -25 5 -29 7 -4 10 -15 7 -25 -4 -9 -3 -14 3
-10 13 8 13 72 1 80 -5 3 -13 -4 -16 -16z"/>
<path d="M6030 3580 c-8 -5 -12 -12 -9 -15 4 -3 12 1 19 10 14 17 11 19 -10 5z"/>
<path d="M4518 3555 c-7 -32 17 -55 27 -26 3 12 11 21 18 21 11 0 -22 29 -34
30 -4 0 -9 -11 -11 -25z"/>
<path d="M6161 3555 c0 -16 4 -37 9 -45 8 -12 10 -11 9 5 -1 11 -5 31 -9 45
-8 24 -8 24 -9 -5z"/>
<path d="M4364 3551 c5 -8 3 -17 -5 -22 -11 -7 -11 -9 3 -9 25 0 30 16 11 31
-14 12 -16 12 -9 0z"/>
<path d="M5666 3544 c-3 -7 0 -15 7 -17 8 -3 7 -10 -5 -22 -15 -17 -17 -17
-29 3 -12 19 -15 19 -40 6 -25 -12 -26 -16 -16 -43 6 -17 16 -27 24 -24 18 7
16 20 -4 27 -11 5 -13 10 -6 17 7 7 17 7 31 -2 27 -17 91 12 89 40 -1 23 -43
35 -51 15z"/>
<path d="M5972 3548 c-7 -7 -12 -16 -12 -21 0 -13 43 -4 46 11 1 7 0 8 -3 2
-8 -16 -26 -12 -19 5 7 18 4 19 -12 3z"/>
<path d="M4170 3540 c-8 -5 -11 -10 -7 -10 4 0 -6 -13 -23 -30 -16 -16 -30
-35 -30 -42 0 -7 13 2 28 19 29 34 68 40 66 9 -3 -26 13 -19 18 9 4 19 1 25
-13 25 -9 0 -19 7 -21 15 -2 10 -7 12 -18 5z"/>
<path d="M4243 3529 c10 -6 23 -22 28 -36 7 -20 13 -23 21 -15 16 16 28 15 28
-3 0 -8 -5 -15 -11 -15 -5 0 -7 -5 -4 -10 5 -8 11 -7 21 1 15 12 34 3 61 -30
7 -8 16 -11 20 -8 8 9 -75 86 -96 89 -9 2 -22 11 -29 21 -7 9 -23 17 -35 17
-20 -1 -21 -1 -4 -11z"/>
<path d="M4567 3518 c-7 -25 -1 -38 16 -37 9 0 9 2 0 5 -18 8 -4 34 18 34 14
0 19 -7 19 -25 0 -28 12 -32 29 -11 9 11 5 18 -22 35 -43 26 -53 26 -60 -1z"/>
<path d="M5927 3523 c-12 -11 -8 -23 8 -23 8 0 15 7 15 15 0 16 -12 20 -23 8z"/>
<path d="M4417 3500 c8 -32 28 -43 44 -24 12 15 11 16 -9 10 -18 -6 -22 -4
-22 13 0 12 -4 21 -9 21 -5 0 -7 -9 -4 -20z"/>
<path d="M6110 3499 c0 -5 5 -9 10 -9 6 0 10 -7 10 -15 0 -8 -4 -15 -10 -15
-5 0 -10 -5 -10 -11 0 -20 27 9 32 34 3 17 0 23 -14 24 -10 1 -18 -2 -18 -8z"/>
<path d="M5952 3488 c-7 -7 -22 -13 -35 -13 -14 0 -26 -10 -35 -28 -10 -21
-19 -27 -33 -24 -23 6 -26 -15 -4 -33 12 -10 16 -8 24 11 6 13 16 31 23 39 16
20 58 23 58 5 0 -7 7 -15 15 -19 8 -3 15 -12 15 -21 0 -8 5 -15 11 -15 6 0 9
10 7 23 -2 12 -9 21 -15 20 -6 -2 -12 5 -12 15 -1 22 -4 52 -6 52 0 0 -6 -5
-13 -12z"/>
<path d="M4664 3462 c-23 -20 -32 -13 86 -65 41 -18 53 -13 22 9 -28 20 -28
33 1 27 18 -4 19 -3 7 6 -8 6 -21 11 -28 11 -7 0 -20 7 -28 15 -20 19 -34 19
-60 -3z m62 -13 c9 -16 -18 -30 -33 -17 -7 6 -13 14 -13 19 0 13 38 11 46 -2z"/>
<path d="M4202 3426 l-31 -46 26 -25 c20 -18 29 -21 35 -12 5 8 1 13 -11 15
-26 4 -31 33 -9 55 10 9 18 14 18 10 0 -5 5 0 11 10 7 13 8 22 1 29 -6 6 -20
-6 -40 -36z"/>
<path d="M4495 3451 c-3 -5 4 -13 16 -16 28 -9 33 -2 9 13 -11 6 -21 8 -25 3z"/>
<path d="M5498 3446 c-23 -17 -23 -25 1 -19 10 3 22 0 25 -6 4 -5 13 -8 21 -5
11 4 10 9 -6 25 -22 22 -19 22 -41 5z"/>
<path d="M4146 3436 c10 -8 21 -12 24 -10 5 6 -21 24 -34 24 -6 0 -1 -6 10
-14z"/>
<path d="M4440 3440 c0 -15 21 -23 32 -12 6 6 2 11 -11 15 -12 3 -21 1 -21 -3z"/>
<path d="M5785 3430 c-3 -5 1 -10 9 -10 8 0 18 5 21 10 3 6 -1 10 -9 10 -8 0
-18 -4 -21 -10z"/>
<path d="M4260 3412 c0 -10 -6 -24 -12 -31 -11 -11 -8 -11 12 0 14 7 28 12 33
11 15 -4 6 14 -13 26 -17 10 -20 10 -20 -6z"/>
<path d="M5909 3423 c-1 -5 -1 -12 0 -16 1 -5 -3 -6 -8 -3 -5 4 -13 0 -18 -7
-4 -8 -21 -22 -38 -32 -76 -48 -94 -72 -48 -66 8 1 10 -5 7 -14 -3 -8 -10 -15
-15 -15 -5 0 -9 -8 -9 -17 0 -11 9 -4 26 20 15 23 31 36 39 33 9 -3 12 0 8 10
-4 11 -9 12 -16 5 -16 -16 -27 -13 -27 5 0 8 5 12 10 9 6 -3 10 -1 10 5 0 7 7
10 15 6 20 -7 45 3 45 19 0 8 8 16 18 19 10 3 18 15 18 26 0 19 -15 29 -17 13z"/>
<path d="M4550 3410 c0 -5 5 -10 11 -10 5 0 7 5 4 10 -3 6 -8 10 -11 10 -2 0
-4 -4 -4 -10z"/>
<path d="M6035 3410 c-3 -5 -1 -10 4 -10 6 0 11 5 11 10 0 6 -2 10 -4 10 -3 0
-8 -4 -11 -10z"/>
<path d="M4350 3400 c0 -6 11 -22 25 -36 14 -14 25 -29 25 -33 0 -5 12 -16 26
-26 14 -9 34 -25 45 -36 10 -10 23 -19 28 -19 6 0 22 -11 37 -25 28 -26 84
-58 91 -51 2 1 -12 14 -32 27 -19 13 -35 27 -35 32 0 4 -7 7 -15 7 -9 0 -18 7
-21 15 -4 8 -12 15 -20 15 -7 0 -18 9 -24 20 -7 14 -7 20 0 20 5 0 10 9 10 20
0 11 -6 20 -14 20 -7 0 -21 12 -30 26 -16 23 -43 29 -39 7 1 -5 -5 -10 -13
-10 -7 0 -14 9 -14 19 0 10 -7 18 -15 18 -8 0 -15 -5 -15 -10z m120 -71 c0 -6
-9 -8 -22 -3 -29 8 -31 10 -23 23 7 13 45 -4 45 -20z"/>
<path d="M5736 3401 c-4 -5 3 -7 14 -4 23 6 26 13 6 13 -8 0 -17 -4 -20 -9z"/>
<path d="M4304 3380 c-12 -4 -24 -18 -27 -29 -5 -22 7 -29 18 -11 10 16 25 11
25 -8 0 -10 9 -24 20 -32 11 -8 20 -22 20 -32 0 -10 6 -18 13 -18 7 0 24 -12
36 -26 16 -19 25 -23 31 -15 4 7 13 11 21 9 8 -1 14 2 14 7 0 6 -4 9 -9 7 -4
-1 -19 9 -32 23 -12 14 -28 25 -34 25 -5 0 -10 7 -10 15 0 8 -9 15 -21 15 -12
0 -17 4 -14 11 4 6 -2 19 -14 30 -12 11 -19 24 -16 30 7 10 7 10 -21 -1z"/>
<path d="M4630 3383 c0 -4 5 -15 10 -23 8 -13 10 -13 10 2 0 9 -4 20 -10 23
-5 3 -10 3 -10 -2z"/>
<path d="M4891 3372 c8 -12 31 -28 52 -34 36 -11 47 -23 27 -30 -6 -2 4 -12
22 -22 l33 -19 -20 22 c-19 22 -19 23 -1 36 18 14 18 14 0 14 -37 1 -84 13
-84 23 0 5 5 6 10 3 6 -3 10 -1 10 5 0 7 -7 9 -16 6 -9 -4 -23 -1 -32 6 -14
12 -14 11 -1 -10z"/>
<path d="M5580 3382 c-20 -7 -56 -42 -42 -42 6 0 14 5 17 10 7 11 36 10 45 -2
3 -3 12 -1 21 6 15 10 15 13 -5 22 -12 6 -28 8 -36 6z"/>
<path d="M5780 3365 c-26 -28 -23 -31 15 -13 14 6 25 17 25 25 0 20 -14 16
-40 -12z"/>
<path d="M4667 3369 c7 -7 15 -10 18 -7 3 3 -2 9 -12 12 -14 6 -15 5 -6 -5z"/>
<path d="M4823 3372 c-26 -4 -33 -42 -8 -42 9 0 12 6 9 15 -7 18 18 20 47 5
10 -6 19 -7 19 -3 0 13 -43 28 -67 25z"/>
<path d="M5350 3371 c-8 -6 -18 -7 -22 -5 -4 3 -12 -6 -18 -20 -5 -14 -16 -26
-24 -26 -8 0 -17 -8 -21 -19 -4 -13 -12 -17 -32 -13 -18 3 -24 1 -19 -7 11
-17 44 -13 55 7 8 13 12 14 19 4 10 -14 94 -14 85 1 -2 4 -18 5 -33 2 -32 -7
-48 9 -30 30 16 19 49 19 56 0 4 -8 14 -15 23 -15 13 0 13 2 2 9 -11 7 -10 11
7 22 16 10 18 16 10 26 -12 15 -37 17 -58 4z m33 -15 c4 -9 0 -13 -11 -11 -9
2 -19 4 -22 4 -4 1 21 20 26 21 1 0 4 -6 7 -14z"/>
<path d="M5955 3369 c4 -6 -1 -16 -11 -24 -14 -10 -16 -17 -8 -25 8 -8 15 -7
27 4 9 9 20 16 26 16 16 0 13 11 -6 26 -22 16 -37 18 -28 3z"/>
<path d="M5656 3362 c-2 -4 4 -8 14 -8 10 0 16 4 14 8 -3 4 -9 8 -14 8 -5 0
-11 -4 -14 -8z"/>
<path d="M4711 3347 c-15 -19 -2 -29 16 -11 16 15 33 10 33 -10 0 -7 7 -13 14
-13 19 0 4 32 -20 41 -23 9 -30 8 -43 -7z"/>
<path d="M5005 3353 c11 -3 25 -10 30 -17 6 -7 19 -18 30 -24 20 -11 20 -12
-2 -18 -13 -3 -23 -10 -23 -16 0 -5 9 -4 20 2 11 6 20 7 20 2 0 -5 7 -9 15 -9
18 0 20 13 3 21 -9 3 -7 10 7 21 19 16 19 17 -12 10 -26 -5 -32 -3 -38 14 -5
16 -14 21 -38 20 -21 -1 -25 -3 -12 -6z"/>
<path d="M5220 3345 c-15 -18 -35 -20 -24 -3 4 7 3 8 -5 4 -6 -4 -8 -12 -5
-18 4 -6 -4 -8 -22 -6 -16 3 -23 3 -16 1 7 -3 10 -15 7 -31 -3 -15 -2 -21 1
-15 4 9 11 10 25 3 13 -7 19 -7 19 0 0 5 -4 10 -10 10 -5 0 -10 4 -10 9 0 12
70 45 93 43 9 0 17 3 17 9 0 15 -56 10 -70 -6z"/>
<path d="M5456 3351 c-3 -5 1 -12 10 -15 8 -3 12 -2 9 4 -3 6 -2 10 3 10 6 0
12 -7 16 -15 6 -17 61 -21 71 -5 3 6 -1 7 -10 4 -8 -4 -26 1 -40 10 -27 18
-51 21 -59 7z"/>
<path d="M5138 3343 c6 -2 18 -2 25 0 6 3 1 5 -13 5 -14 0 -19 -2 -12 -5z"/>
<path d="M5996 3321 c-4 -5 -2 -12 3 -15 5 -4 12 -2 15 3 4 5 2 12 -3 15 -5 4
-12 2 -15 -3z"/>
<path d="M4230 3310 c0 -5 4 -10 9 -10 6 0 13 5 16 10 3 6 -1 10 -9 10 -9 0
-16 -4 -16 -10z"/>
<path d="M4870 3309 c0 -5 5 -7 10 -4 6 3 10 8 10 11 0 2 -4 4 -10 4 -5 0 -10
-5 -10 -11z"/>
<path d="M5450 3316 c0 -2 7 -7 16 -10 8 -3 12 -2 9 4 -6 10 -25 14 -25 6z"/>
<path d="M5885 3311 c-3 -5 -1 -12 5 -16 18 -11 11 -28 -10 -22 -20 5 -44 -15
-38 -33 2 -6 17 -2 36 10 22 14 32 27 32 45 0 25 -14 34 -25 16z"/>
<path d="M4920 3306 c0 -3 9 -10 20 -16 11 -6 20 -8 20 -6 0 3 -9 10 -20 16
-11 6 -20 8 -20 6z"/>
<path d="M4260 3281 c0 -6 5 -13 10 -16 6 -3 10 1 10 9 0 9 -4 16 -10 16 -5 0
-10 -4 -10 -9z"/>
<path d="M5653 3279 c-13 -4 -23 -13 -23 -19 0 -13 47 -13 56 1 10 17 -9 28
-33 18z"/>
<path d="M4600 3270 c-9 -6 -10 -10 -3 -10 6 0 15 5 18 10 8 12 4 12 -15 0z"/>
<path d="M5748 3266 c-19 -14 -24 -36 -9 -36 11 0 24 19 27 38 3 15 3 15 -18
-2z"/>
<path d="M4297 3256 c-3 -8 2 -21 11 -29 15 -14 19 -14 37 -1 19 15 19 15 -6
10 -22 -3 -26 -1 -22 15 6 22 -12 26 -20 5z"/>
<path d="M4669 3226 c13 -14 20 -29 17 -34 -3 -5 12 -9 34 -8 22 0 40 4 40 8
0 5 -7 8 -15 8 -8 0 -15 5 -15 11 0 8 -6 7 -17 -2 -10 -7 -15 -10 -11 -5 4 5
-3 17 -16 27 -34 27 -44 23 -17 -5z"/>
<path d="M5566 3228 c3 -5 10 -5 16 -2 7 5 8 2 4 -5 -5 -7 -14 -10 -22 -7 -7
3 -16 1 -19 -3 -6 -11 18 -21 48 -21 16 0 18 3 8 9 -9 6 -10 11 -2 15 19 12
12 26 -13 24 -14 -1 -22 -6 -20 -10z"/>
<path d="M4610 3226 c0 -2 7 -7 16 -10 8 -3 12 -2 9 4 -6 10 -25 14 -25 6z"/>
<path d="M5700 3219 c0 -5 5 -7 10 -4 6 3 10 8 10 11 0 2 -4 4 -10 4 -5 0 -10
-5 -10 -11z"/>
<path d="M5786 3214 c-9 -22 -8 -24 9 -24 8 0 15 9 15 20 0 24 -15 27 -24 4z"/>
<path d="M5660 3210 c0 -5 5 -10 10 -10 6 0 10 5 10 10 0 6 -4 10 -10 10 -5 0
-10 -4 -10 -10z"/>
<path d="M4439 3183 c-12 -14 -12 -16 1 -11 20 7 78 -24 72 -40 -3 -9 4 -12
22 -10 32 5 40 13 32 34 -5 13 -9 14 -20 5 -10 -8 -16 -9 -21 -1 -3 5 -13 10
-22 10 -9 0 -24 7 -33 15 -15 14 -19 14 -31 -2z"/>
<path d="M4495 3190 c4 -6 11 -8 16 -5 14 9 11 15 -7 15 -8 0 -12 -5 -9 -10z"/>
<path d="M5697 3193 c-4 -3 -7 -13 -7 -21 0 -12 3 -12 15 -2 8 7 15 16 15 21
0 11 -14 12 -23 2z"/>
<path d="M4377 3176 c-6 -15 1 -26 15 -26 4 0 8 9 8 20 0 23 -15 27 -23 6z"/>
<path d="M4782 3178 c-7 -7 -12 -19 -12 -27 0 -11 3 -12 8 -5 4 7 16 13 26 15
17 4 17 6 4 16 -11 10 -17 10 -26 1z"/>
<path d="M5465 3180 c3 -5 12 -7 20 -3 21 7 19 13 -6 13 -11 0 -18 -4 -14 -10z"/>
<path d="M5615 3179 c-4 -6 -5 -13 -2 -16 7 -7 27 6 27 18 0 12 -17 12 -25 -2z"/>
<path d="M5817 3183 c-10 -9 -9 -23 2 -23 5 0 11 7 15 15 5 15 -5 20 -17 8z"/>
<path d="M5390 3162 c-18 -19 -19 -31 -8 -54 5 -10 3 -18 -5 -22 -6 -3 -3 -5
7 -3 19 2 32 47 14 47 -4 0 -8 4 -8 10 0 5 16 12 35 16 19 3 32 10 29 15 -9
15 -48 9 -64 -9z"/>
<path d="M5713 3146 c-32 -30 -33 -31 -9 -31 13 0 22 3 20 7 -3 4 2 10 9 15
15 9 31 44 19 42 -4 -1 -22 -15 -39 -33z"/>
<path d="M4880 3154 c0 -8 -4 -13 -9 -10 -5 4 -7 -3 -4 -14 4 -14 -1 -21 -21
-26 -14 -3 -23 -11 -20 -16 4 -5 15 -7 27 -4 11 3 29 1 39 -5 12 -6 18 -6 18
1 0 5 -7 10 -15 10 -19 0 -19 17 0 36 9 9 23 13 35 9 11 -4 20 -2 20 4 0 10
-21 16 -42 12 -5 0 -8 4 -8 9 0 6 -4 10 -10 10 -5 0 -10 -7 -10 -16z"/>
<path d="M4958 3158 c6 -6 18 -8 28 -6 14 3 12 5 -9 10 -19 3 -25 2 -19 -4z"/>
<path d="M5500 3160 c-13 -8 -12 -10 3 -10 9 0 17 5 17 10 0 12 -1 12 -20 0z"/>
<path d="M5840 3148 c-5 -13 -9 -17 -9 -9 -1 10 -9 7 -28 -11 -16 -14 -34 -23
-40 -21 -7 2 -23 -3 -35 -11 -12 -9 -17 -16 -10 -16 7 0 10 -4 7 -10 -3 -5 -2
-10 4 -10 5 0 12 6 14 13 4 9 8 9 14 0 5 -7 16 0 33 23 25 33 40 43 40 24 0
-5 6 -7 14 -4 7 3 14 16 14 30 0 30 -6 31 -18 2z"/>
<path d="M4411 3146 c-8 -9 -11 -19 -7 -23 9 -9 29 13 24 27 -2 8 -8 7 -17 -4z"/>
<path d="M4663 3142 c22 -22 122 -51 139 -41 14 9 5 12 -29 9 -13 -1 -23 3
-23 9 0 6 -3 10 -7 10 -23 -4 -43 3 -43 14 0 6 -12 13 -26 14 -24 1 -25 0 -11
-15z"/>
<path d="M5063 3142 c-9 -15 -7 -21 9 -31 11 -7 23 -9 26 -5 4 4 2 9 -4 11 -7
2 -10 13 -7 23 7 25 -8 26 -24 2z"/>
<path d="M5234 3151 c4 -5 0 -12 -6 -14 -7 -3 -4 -6 7 -7 25 -1 55 -23 55 -39
0 -8 -8 -10 -20 -6 -11 4 -20 2 -20 -4 0 -6 14 -11 31 -11 30 0 31 2 26 30 -6
27 -4 30 18 30 22 0 43 16 33 25 -2 2 -24 -1 -48 -6 -31 -7 -46 -7 -48 0 -2 6
-10 11 -18 11 -9 0 -13 -4 -10 -9z"/>
<path d="M5571 3151 c-10 -6 -10 -10 -1 -16 6 -4 14 -4 17 -1 3 3 12 1 20 -6
10 -8 17 -8 25 0 9 9 7 12 -10 12 -12 0 -22 5 -22 10 0 12 -10 13 -29 1z"/>
<path d="M5018 3143 c7 -3 16 -2 19 1 4 3 -2 6 -13 5 -11 0 -14 -3 -6 -6z"/>
<path d="M5158 3144 c20 -9 14 -24 -10 -25 -21 -1 -21 -2 -3 -6 31 -8 42 -22
25 -33 -12 -8 -10 -10 8 -10 24 0 29 19 10 38 -9 9 -8 12 6 12 30 0 12 25 -20
27 -16 1 -23 0 -16 -3z"/>
<path d="M5500 3126 c-25 -6 -54 -17 -65 -23 -17 -10 -13 -11 25 -8 24 1 46 8
48 14 2 6 7 9 12 6 4 -3 13 2 20 10 7 8 11 15 9 14 -2 0 -24 -6 -49 -13z"/>
<path d="M4597 3123 c-4 -3 -7 -15 -7 -25 0 -10 -7 -18 -15 -18 -8 0 -15 -4
-15 -9 0 -5 -3 -16 -6 -25 -10 -26 16 -18 40 11 29 38 32 95 3 66z"/>
<path d="M4967 3110 c4 -16 0 -20 -18 -20 -19 0 -21 -2 -9 -10 22 -14 40 -12
40 5 0 8 12 21 28 29 l27 15 -37 1 c-31 0 -35 -3 -31 -20z"/>
<path d="M4445 3111 c-6 -11 9 -23 19 -14 9 9 7 23 -3 23 -6 0 -12 -4 -16 -9z"/>
<path d="M4496 3095 c-18 -18 -21 -35 -6 -35 11 0 34 39 27 46 -3 3 -12 -2
-21 -11z"/>
<path d="M5628 3099 c-22 -12 -24 -33 -3 -25 11 4 15 -2 15 -24 0 -25 4 -30
24 -30 13 0 26 6 29 14 6 15 -9 16 -30 3 -17 -11 -17 25 -1 41 9 9 9 12 -1 12
-7 0 -9 5 -6 10 8 13 -5 12 -27 -1z"/>
<path d="M4634 3074 c-10 -14 -25 -33 -33 -41 -9 -10 -10 -18 -3 -25 7 -7 14
-1 23 18 8 16 25 31 39 34 17 4 21 8 12 14 -7 4 -10 12 -7 17 14 21 -14 7 -31
-17z"/>
<path d="M5066 3081 c-3 -5 3 -11 15 -14 16 -4 18 -3 8 9 -13 16 -16 17 -23 5z"/>
<path d="M5540 3066 c8 -21 6 -26 -13 -32 -12 -5 -26 -7 -31 -6 -5 2 -16 -4
-26 -13 -9 -8 -20 -12 -23 -8 -4 3 -7 -1 -7 -11 0 -14 3 -15 22 -5 11 6 51 22
87 34 36 13 58 24 49 24 -10 1 -18 6 -18 11 0 6 -7 10 -15 10 -8 0 -15 5 -15
10 0 6 -4 10 -10 10 -6 0 -6 -9 0 -24z"/>
<path d="M4700 3073 c0 -6 -7 -19 -16 -27 -8 -9 -11 -16 -5 -16 26 0 8 -20
-24 -26 -19 -3 -35 -10 -35 -15 0 -5 6 -6 14 -3 8 3 20 -3 27 -14 7 -11 19
-18 26 -15 8 3 22 -2 32 -11 10 -9 21 -13 24 -10 4 4 13 1 22 -6 8 -7 15 -8
15 -3 0 5 -18 17 -40 27 -22 10 -40 22 -40 27 0 16 52 31 64 19 5 -5 17 -10
26 -10 9 0 23 -11 30 -25 7 -14 18 -25 24 -25 13 0 45 20 32 20 -5 0 -3 7 4
15 8 9 8 15 2 15 -6 0 -12 -6 -15 -12 -3 -9 -10 -6 -22 10 -9 13 -27 22 -42
22 -14 0 -32 8 -40 18 -10 12 -16 14 -19 5 -3 -7 -15 -13 -26 -13 -17 0 -18 3
-8 14 8 11 9 20 1 33 -6 10 -11 13 -11 6z"/>
<path d="M5387 2991 c-3 -13 -16 -20 -45 -23 -22 -2 -38 0 -36 4 3 5 -1 8 -9
8 -8 0 -17 -7 -21 -15 -7 -19 -24 -19 -28 0 -2 12 -6 11 -16 -6 -14 -21 -13
-22 26 -16 48 6 59 -1 32 -20 -11 -8 -20 -21 -20 -30 0 -15 2 -14 13 2 13 17
14 17 29 -4 15 -20 48 -21 48 0 0 4 -7 5 -17 2 -11 -4 -14 -3 -9 6 4 6 2 18
-4 26 -10 12 -9 16 6 21 61 19 73 27 71 45 -2 24 -13 25 -20 0z"/>
<path d="M5531 2989 c-11 -19 -11 -21 2 -16 9 3 18 -1 22 -10 9 -24 25 -2 19
25 -8 28 -25 28 -43 1z"/>
<path d="M4920 2965 c0 -8 9 -15 20 -15 13 0 18 5 14 15 -4 8 -12 15 -20 15
-8 0 -14 -7 -14 -15z"/>
<path d="M4996 2967 c3 -10 -1 -17 -13 -20 -12 -3 -8 -5 10 -6 22 -1 28 3 25
16 -2 9 -9 18 -16 21 -7 2 -10 -2 -6 -11z"/>
<path d="M5055 2960 c-10 -16 4 -30 28 -29 17 1 18 2 5 6 -21 5 -23 19 -5 26
7 3 6 6 -5 6 -9 1 -20 -3 -23 -9z"/>
<path d="M5157 2963 c-14 -13 -6 -23 18 -23 18 0 23 4 19 15 -6 16 -26 20 -37
8z"/>
<path d="M5415 2940 c10 -11 14 -24 10 -29 -3 -6 -1 -11 4 -11 6 0 11 5 11 11
0 6 7 9 15 5 8 -3 15 -1 15 4 0 6 9 10 19 10 10 0 21 7 25 15 4 13 2 14 -14 5
-11 -6 -26 -8 -32 -4 -6 4 -24 8 -40 9 -28 3 -28 2 -13 -15z"/>
<path d="M4807 2933 c-12 -12 -8 -20 18 -31 14 -6 25 -8 25 -3 0 13 -36 42
-43 34z"/>
<path d="M4971 2703 c-8 -16 -4 -18 42 -14 51 3 49 12 -5 25 -20 5 -30 2 -37
-11z"/>
<path d="M5258 2683 c6 -2 12 -13 12 -24 0 -16 7 -19 55 -18 l56 2 -35 23
c-21 14 -49 24 -68 23 -18 0 -27 -3 -20 -6z"/>
<path d="M4885 2645 l-30 -13 28 -11 c15 -6 40 -13 55 -16 27 -5 27 -5 -3 9
-20 10 -24 15 -12 16 9 0 17 7 17 15 0 18 -15 18 -55 0z"/>
<path d="M5228 2600 c40 -28 72 -56 72 -62 0 -6 2 -9 5 -6 3 3 0 18 -7 33 -11
24 -10 29 1 33 10 3 -117 51 -138 52 -2 0 28 -23 67 -50z"/>
<path d="M5398 2633 c6 -2 18 -2 25 0 6 3 1 5 -13 5 -14 0 -19 -2 -12 -5z"/>
<path d="M3161 2528 c-81 -14 -156 -84 -161 -148 -5 -56 2 -74 38 -110 60 -60
175 -79 257 -41 52 24 72 47 80 96 l6 40 -20 -43 c-15 -32 -31 -47 -63 -62
-81 -37 -202 -16 -242 41 -41 59 -4 143 79 180 56 26 105 24 149 -6 38 -26 42
-25 26 5 -21 39 -85 60 -149 48z"/>
<path d="M6953 2510 c-27 -16 -63 -60 -49 -60 3 0 22 12 43 26 33 22 45 25 92
21 102 -11 175 -89 151 -162 -6 -19 -24 -44 -40 -55 -38 -27 -125 -45 -173
-36 -40 8 -102 55 -112 87 -4 11 -10 17 -15 14 -5 -3 -5 -17 1 -33 47 -123
277 -135 363 -19 47 63 5 170 -84 215 -57 28 -133 30 -177 2z"/>
<path d="M6800 2296 c0 -2 8 -10 18 -17 15 -13 16 -12 3 4 -13 16 -21 21 -21
13z"/>
<path d="M3396 2251 c-2 -4 -6 -26 -10 -51 -10 -73 -51 -147 -113 -208 l-58
-56 3 -101 4 -100 -71 -82 c-39 -45 -71 -84 -71 -87 0 -3 37 -6 83 -6 l83 0
12 -92 c7 -51 12 -102 12 -113 0 -26 44 -32 66 -10 9 8 29 15 46 15 17 0 39 6
47 14 34 29 131 75 182 85 30 7 72 20 94 31 l40 19 -60 -5 c-60 -6 -159 -22
-182 -31 -9 -4 -13 8 -13 40 l0 45 78 9 c100 10 424 10 525 0 l77 -9 0 -34 c0
-19 -4 -34 -9 -34 -15 0 -163 20 -191 26 -29 5 98 -64 167 -92 l23 -9 -23 -29
-23 -28 -105 42 c-98 40 -239 68 -239 48 0 -4 17 -8 38 -8 62 0 213 -85 197
-110 -3 -5 4 -14 15 -20 28 -15 24 -63 -5 -68 -20 -4 -20 -4 0 11 16 13 17 17
6 31 -13 15 -16 15 -31 1 -16 -14 -18 -14 -31 1 -21 25 -104 59 -189 77 -119
25 -143 27 -175 19 -26 -7 -21 -9 38 -15 80 -7 173 -46 213 -88 15 -16 22 -29
16 -29 -7 0 -21 -14 -31 -31 -13 -22 -21 -27 -27 -18 -4 7 -3 14 4 17 24 8 11
21 -45 48 -47 23 -72 29 -147 31 l-91 3 55 -26 c51 -23 120 -78 120 -95 0 -21
-41 -15 -109 15 -114 52 -156 59 -289 53 -214 -10 -341 -79 -402 -222 -16 -36
-24 -45 -45 -45 -14 0 -25 -6 -25 -12 0 -10 130 -13 617 -13 419 0 756 -6
1047 -18 561 -22 526 -23 526 8 0 20 -5 25 -25 25 -23 0 -25 4 -25 48 0 84 23
417 30 425 3 4 39 -1 79 -12 65 -16 79 -17 119 -5 82 25 77 33 91 -148 6 -90
15 -196 18 -235 l6 -73 -27 0 c-22 0 -26 -4 -26 -30 l0 -29 83 5 c456 27 848
38 1412 40 585 3 699 8 623 27 -14 4 -32 24 -46 51 -56 105 -174 184 -309 205
-153 24 -259 11 -382 -45 -85 -39 -97 -41 -104 -15 -5 21 37 56 105 88 21 10
38 22 38 27 0 5 -30 6 -67 4 -90 -7 -180 -49 -188 -90 -6 -24 -8 -26 -21 -14
-18 19 -18 30 1 22 8 -3 15 -2 15 3 0 5 -9 11 -20 14 -31 8 -24 23 31 67 58
45 128 70 208 71 53 1 54 1 21 10 -19 5 -57 6 -85 3 -79 -9 -245 -63 -269 -87
-31 -32 -62 -55 -52 -39 5 8 1 18 -9 26 -23 17 -20 22 41 79 31 29 73 55 105
66 94 34 20 22 -99 -15 -75 -23 -121 -43 -133 -57 -17 -21 -17 -22 -38 -3 -12
11 -21 25 -21 32 0 12 123 93 181 119 44 19 27 19 -58 0 -37 -9 -78 -17 -89
-20 -17 -4 -25 2 -34 26 -8 17 -9 34 -4 39 28 27 394 37 564 17 l95 -12 3 -37
c4 -44 8 -43 -103 -23 -44 8 -93 14 -110 15 l-30 0 30 -18 c17 -10 62 -27 100
-37 82 -22 195 -71 195 -85 0 -5 19 -14 43 -20 23 -7 52 -18 64 -25 19 -13 22
-12 26 8 6 25 20 194 17 203 -5 16 31 24 113 24 69 0 87 3 87 15 0 7 -7 18
-15 23 -9 4 -45 37 -82 73 l-65 64 4 106 4 106 -34 23 c-83 58 -152 173 -152
256 0 28 -3 35 -15 30 -34 -13 -511 -63 -1020 -108 -641 -56 -960 -46 -1965
62 -362 39 -451 47 -454 41z m1861 -195 c32 -37 32 -105 0 -142 -18 -20 -35
-28 -74 -31 -95 -10 -173 36 -173 101 0 71 62 108 169 102 45 -2 59 -8 78 -30z
m-1042 -516 c7 -11 -23 -65 -31 -57 -2 2 -1 18 2 35 7 32 18 40 29 22z m1852
-2 c-2 -7 2 -25 10 -40 15 -31 0 -39 -17 -9 -13 26 -13 61 1 61 6 0 9 -6 6
-12z m-37 -60 c20 -40 20 -42 2 -23 -19 19 -39 65 -29 65 3 0 15 -19 27 -42z
m-1800 7 c-7 -9 -15 -13 -17 -11 -7 7 7 26 19 26 6 0 6 -6 -2 -15z m34 -7
c-15 -27 -27 -38 -35 -33 -4 3 -1 14 9 25 19 21 37 26 26 8z m2608 -38 c-2
-22 -8 -38 -12 -35 -13 8 -9 75 4 75 7 0 10 -14 8 -40z m-3442 -5 c0 -19 -4
-35 -10 -35 -5 0 -10 9 -10 19 0 11 -3 26 -6 35 -4 11 -1 16 10 16 12 0 16
-10 16 -35z m3395 12 c0 -26 -20 -25 -23 2 -3 16 1 22 10 19 7 -3 13 -12 13
-21z m-2630 -86 c-8 -26 -38 -43 -60 -35 -14 6 -11 12 16 40 34 35 56 33 44
-5z m1898 -13 c10 -16 15 -28 13 -28 -11 0 -36 33 -36 47 0 9 1 14 3 12 2 -2
11 -16 20 -31z m143 -115 c-3 -4 -13 2 -21 13 -22 29 -18 41 6 15 12 -12 18
-25 15 -28z m-2336 -11 c14 -11 19 -23 15 -35 -11 -26 -23 -20 -17 8 3 20 0
25 -17 25 -13 0 -21 -6 -21 -17 0 -13 -3 -14 -12 -5 -8 8 -8 15 2 27 16 19 23
19 50 -3z m2480 -8 c0 -20 -18 -17 -23 4 -3 9 -5 0 -6 -21 -1 -23 -5 -36 -11
-32 -9 5 -5 47 7 67 6 12 33 -3 33 -18z m130 -66 c0 -20 -26 -24 -33 -5 -2 6
0 20 5 31 8 15 12 16 19 5 5 -8 9 -22 9 -31z m-2740 -14 c0 -13 -5 -24 -11
-24 -5 0 -8 4 -4 9 3 5 1 12 -5 16 -16 10 -12 35 5 29 8 -4 15 -17 15 -30z
m-95 -4 c10 -11 16 -20 13 -20 -3 0 -13 9 -23 20 -10 11 -16 20 -13 20 3 0 13
-9 23 -20z m2904 18 c-2 -2 -20 -16 -39 -33 -29 -25 -32 -26 -15 -5 23 29 36
40 49 40 5 0 7 -1 5 -2z m-2855 -37 c-2 -3 -12 3 -22 13 -16 17 -16 18 5 5 12
-7 20 -15 17 -18z m3493 -67 c-3 -3 -12 -4 -19 -1 -8 3 -5 6 6 6 11 1 17 -2
13 -5z"/>
<path d="M5071 2016 c-46 -49 -8 -96 77 -96 50 0 92 33 92 73 0 36 -19 47 -85
47 -52 0 -65 -4 -84 -24z"/>
<path d="M4156 1355 c-16 -12 -17 -15 -4 -15 9 0 18 7 22 15 7 18 6 18 -18 0z"/>
<path d="M5112 2251 c-8 -5 -12 -17 -10 -27 5 -27 85 -33 95 -8 12 31 -51 57
-85 35z"/>
<path d="M6458 1443 c6 -2 18 -2 25 0 6 3 1 5 -13 5 -14 0 -19 -2 -12 -5z"/>
<path d="M4110 1405 c12 -15 30 -12 30 6 0 5 -10 9 -21 9 -18 0 -19 -2 -9 -15z"/>
<path d="M6120 1375 c0 -8 7 -15 16 -15 14 0 14 3 4 15 -7 8 -14 15 -16 15 -2
0 -4 -7 -4 -15z"/>
<path d="M6755 1360 c-3 -5 1 -10 9 -10 9 0 16 5 16 10 0 6 -4 10 -9 10 -6 0
-13 -4 -16 -10z"/>
<path d="M3470 1350 c-18 -12 -2 -12 25 0 13 6 15 9 5 9 -8 0 -22 -4 -30 -9z"/>
<path d="M3394 1306 c-10 -8 -16 -17 -13 -20 3 -3 14 3 24 14 21 23 17 26 -11
6z"/>
<path d="M6825 1300 c3 -4 14 -10 25 -13 11 -3 18 -2 15 3 -3 4 -14 10 -25 13
-11 3 -18 2 -15 -3z"/>
<path d="M7010 923 c-19 -2 -271 -8 -560 -13 -289 -6 -581 -15 -650 -20 -69
-5 -215 -12 -325 -15 -110 -4 -204 -12 -210 -17 -11 -12 286 -4 655 17 124 6
365 13 535 13 171 1 414 5 540 8 153 5 243 3 265 -4 19 -5 59 -13 88 -16 41
-5 52 -4 52 8 0 21 -19 25 -153 31 -67 3 -140 7 -162 8 -22 2 -56 2 -75 0z"/>
<path d="M2878 913 c-36 -3 -48 -8 -48 -20 0 -14 9 -15 73 -8 83 10 107 10
832 2 297 -3 614 -10 705 -16 289 -18 580 -25 580 -14 0 6 -75 13 -192 17
-106 4 -326 13 -488 21 -276 13 -1357 26 -1462 18z"/>
<path d="M2878 823 c-41 -3 -48 -7 -48 -26 0 -22 2 -22 88 -16 108 8 2058 -17
2090 -26 7 -3 12 5 12 20 l0 25 -107 0 c-181 1 -1544 19 -1773 24 -118 2 -236
2 -262 -1z"/>
<path d="M6615 820 c-236 -4 -638 -11 -892 -15 l-463 -7 0 -25 0 -24 168 6
c630 21 1908 35 1950 21 19 -6 22 -4 22 18 0 22 -5 26 -27 26 -16 0 -95 2
-178 4 -82 2 -343 0 -580 -4z"/>
</g>
</svg>
